<?xml version="1.0" standalone="no"?>
<!DOCTYPE svg PUBLIC "-//W3C//DTD SVG 20010904//EN"
 "http://www.w3.org/TR/2001/REC-SVG-20010904/DTD/svg10.dtd">
<svg version="1.0" xmlns="http://www.w3.org/2000/svg"
 width="200.000000pt" height="200.000000pt" viewBox="0 0 200.000000 200.000000"
 preserveAspectRatio="xMidYMid meet">
<metadata>
Created by potrace 1.11, written by Peter Selinger 2001-2013
</metadata>
<g transform="translate(0.000000,200.000000) scale(0.100000,-0.100000)"
fill="#000000" stroke="none">
<path d="M738 1463 c-234 -233 -250 -256 -225 -315 16 -36 423 -448 454 -458
10 -3 25 -5 33 -4 8 1 23 2 34 3 10 0 119 102 242 225 215 215 224 226 224
263 0 21 -6 48 -14 58 -19 27 -403 412 -429 430 -12 8 -39 15 -61 15 -39 0
-47 -7 -258 -217z"/>
<path d="M133 555 c-50 -35 -35 -122 29 -159 56 -34 71 -88 27 -99 -21 -6 -49
16 -49 39 0 8 -9 14 -19 14 -24 0 -18 -30 10 -56 23 -20 82 -22 104 -4 24 20
18 65 -11 91 -76 68 -84 78 -84 108 0 31 22 61 44 61 20 0 39 -27 41 -58 1
-34 30 -42 38 -11 7 26 -15 74 -38 83 -29 11 -70 7 -92 -9z"/>
<path d="M318 547 c0 -7 -2 -16 -3 -22 -2 -5 -3 -16 -4 -22 0 -7 -10 -13 -22
-13 -12 0 -19 -5 -17 -12 3 -7 13 -13 23 -13 17 0 19 -9 19 -92 0 -69 3 -93
13 -93 9 0 13 26 15 93 3 80 5 92 21 91 9 -1 17 4 17 12 0 8 -10 14 -21 14
-18 0 -21 5 -17 30 3 18 0 31 -9 34 -7 3 -14 0 -15 -7z"/>
<path d="M1130 474 l0 -84 -39 0 -38 0 4 80 c5 76 4 80 -16 80 -21 0 -22 -3
-19 -132 2 -90 7 -133 15 -135 7 -3 13 10 15 34 3 36 5 38 39 39 36 1 37 0 35
-33 -1 -35 9 -52 24 -37 4 5 11 68 15 139 6 127 6 131 -14 132 -20 2 -21 -4
-21 -83z"/>
<path d="M766 498 c2 -29 3 -90 3 -135 1 -61 4 -83 14 -83 7 0 13 9 14 21 2
28 33 73 43 63 4 -5 13 -26 20 -46 8 -26 17 -38 30 -38 17 0 17 4 -7 59 l-26
59 22 35 c19 31 20 35 5 41 -9 4 -18 5 -19 4 -1 -2 -15 -25 -31 -53 l-29 -50
-3 88 c-2 75 -5 87 -20 87 -15 0 -18 -8 -16 -52z"/>
<path d="M1250 488 c-74 -24 -72 -170 3 -206 24 -12 31 -11 53 3 32 21 53 69
50 117 -5 70 -49 105 -106 86z m56 -32 c29 -22 26 -112 -5 -137 -47 -38 -85
19 -72 110 2 15 31 41 45 41 7 0 21 -6 32 -14z"/>
<path d="M1590 482 c-44 -35 -20 -104 40 -117 40 -9 55 -29 36 -48 -20 -19
-57 -10 -63 15 -7 24 -33 23 -33 -1 0 -27 37 -51 77 -51 37 0 69 36 59 68 -6
17 -16 24 -83 55 -32 15 -31 55 2 63 29 7 55 -10 55 -36 0 -13 6 -17 18 -13
14 3 18 11 14 29 -9 50 -79 71 -122 36z"/>
<path d="M1792 488 c-92 -25 -72 -208 23 -208 38 0 86 43 68 61 -8 8 -15 6
-25 -10 -14 -24 -59 -29 -76 -8 -6 6 -13 24 -17 40 l-7 27 71 0 c76 0 81 4 61
54 -13 36 -57 55 -98 44z m68 -50 c0 -4 1 -11 3 -15 2 -8 -61 -12 -80 -5 -20
7 -15 28 10 39 23 10 67 -2 67 -19z"/>
<path d="M410 463 c-31 -39 -25 -137 9 -164 33 -27 77 -24 107 6 31 31 22 56
-10 26 -43 -41 -96 -19 -96 38 0 19 6 21 71 21 61 0 70 2 65 16 -3 9 -6 21 -6
28 0 27 -41 56 -80 56 -30 0 -43 -6 -60 -27z m98 -15 c23 -23 12 -33 -38 -33
-27 0 -50 1 -50 3 0 2 5 12 10 23 12 22 59 26 78 7z"/>
<path d="M613 478 c-26 -13 -38 -37 -23 -52 7 -7 15 -3 26 12 21 30 69 30 78
0 12 -45 8 -48 -38 -42 -36 5 -47 3 -65 -15 -40 -40 -18 -105 35 -103 16 1 46
2 67 3 l37 1 0 78 c0 63 -4 82 -21 104 -22 28 -57 33 -96 14z m78 -124 c11
-14 10 -19 -10 -35 -32 -26 -59 -24 -73 7 -10 21 -9 27 3 35 22 14 65 10 80
-7z"/>
<path d="M1389 458 c-7 -112 3 -163 33 -179 19 -10 25 -8 50 20 l28 31 0 -25
c0 -15 6 -25 14 -25 11 0 14 22 15 100 2 121 -15 128 -41 17 -31 -128 -73
-122 -71 10 1 57 -2 73 -13 73 -8 0 -15 -10 -15 -22z"/>
</g>
</svg>
